<mxfile host="app.diagrams.net" modified="2022-04-07T02:17:45.016Z" agent="5.0 (Windows NT 10.0; Win64; x64) AppleWebKit/537.36 (KHTML, like Gecko) Chrome/99.0.4844.84 Safari/537.36" etag="dXjxU_-Xs_OOdwJABBXT" version="15.9.6" type="github">
  <diagram id="uyy2j0fEylNc8Pu5PRSM" name="페이지-1">
    <mxGraphModel dx="2076" dy="1142" grid="1" gridSize="10" guides="1" tooltips="1" connect="1" arrows="1" fold="1" page="1" pageScale="1" pageWidth="2336" pageHeight="1654" math="0" shadow="0">
      <root>
        <mxCell id="0" />
        <mxCell id="1" parent="0" />
        <mxCell id="exIGDDAsjf5PF7rCGTXC-1" value="&lt;font style=&quot;font-size: 24px&quot;&gt;관리자&lt;/font&gt;" style="rounded=0;whiteSpace=wrap;html=1;" vertex="1" parent="1">
          <mxGeometry x="120" y="820" width="120" height="60" as="geometry" />
        </mxCell>
        <mxCell id="exIGDDAsjf5PF7rCGTXC-3" value="&lt;font style=&quot;font-size: 24px&quot;&gt;고객&lt;/font&gt;" style="rounded=0;whiteSpace=wrap;html=1;" vertex="1" parent="1">
          <mxGeometry x="1040" y="970" width="120" height="60" as="geometry" />
        </mxCell>
        <mxCell id="exIGDDAsjf5PF7rCGTXC-4" value="&lt;font style=&quot;font-size: 24px&quot;&gt;업주&lt;/font&gt;" style="rounded=0;whiteSpace=wrap;html=1;" vertex="1" parent="1">
          <mxGeometry x="1800" y="220" width="120" height="60" as="geometry" />
        </mxCell>
        <mxCell id="exIGDDAsjf5PF7rCGTXC-9" value="어플리케이션 이름" style="ellipse;whiteSpace=wrap;html=1;aspect=fixed;fontSize=24;" vertex="1" parent="1">
          <mxGeometry x="2180" y="820" width="250" height="250" as="geometry" />
        </mxCell>
        <mxCell id="exIGDDAsjf5PF7rCGTXC-10" value="" style="endArrow=classic;html=1;rounded=0;fontSize=24;" edge="1" parent="1">
          <mxGeometry width="50" height="50" relative="1" as="geometry">
            <mxPoint x="285" y="840" as="sourcePoint" />
            <mxPoint x="685" y="760" as="targetPoint" />
          </mxGeometry>
        </mxCell>
        <mxCell id="exIGDDAsjf5PF7rCGTXC-12" value="상품권" style="text;html=1;strokeColor=none;fillColor=none;align=center;verticalAlign=middle;whiteSpace=wrap;rounded=0;fontSize=24;" vertex="1" parent="1">
          <mxGeometry x="300" y="760" width="170" height="30" as="geometry" />
        </mxCell>
        <mxCell id="exIGDDAsjf5PF7rCGTXC-13" value="" style="endArrow=classic;html=1;rounded=0;fontSize=24;" edge="1" parent="1">
          <mxGeometry width="50" height="50" relative="1" as="geometry">
            <mxPoint x="660" y="280" as="sourcePoint" />
            <mxPoint x="320" y="280" as="targetPoint" />
          </mxGeometry>
        </mxCell>
        <mxCell id="exIGDDAsjf5PF7rCGTXC-14" value="" style="endArrow=classic;html=1;rounded=0;fontSize=24;" edge="1" parent="1">
          <mxGeometry width="50" height="50" relative="1" as="geometry">
            <mxPoint x="1420" y="234.17000000000002" as="sourcePoint" />
            <mxPoint x="1760" y="234.17000000000002" as="targetPoint" />
          </mxGeometry>
        </mxCell>
        <mxCell id="exIGDDAsjf5PF7rCGTXC-15" value="" style="endArrow=classic;html=1;rounded=0;fontSize=24;" edge="1" parent="1">
          <mxGeometry width="50" height="50" relative="1" as="geometry">
            <mxPoint x="1760" y="264.17" as="sourcePoint" />
            <mxPoint x="1420" y="264.17" as="targetPoint" />
          </mxGeometry>
        </mxCell>
        <mxCell id="exIGDDAsjf5PF7rCGTXC-16" value="" style="endArrow=classic;html=1;rounded=0;fontSize=24;" edge="1" parent="1">
          <mxGeometry width="50" height="50" relative="1" as="geometry">
            <mxPoint x="809" y="880" as="sourcePoint" />
            <mxPoint x="1000" y="1030" as="targetPoint" />
            <Array as="points">
              <mxPoint x="809" y="1030" />
            </Array>
          </mxGeometry>
        </mxCell>
        <mxCell id="exIGDDAsjf5PF7rCGTXC-17" value="" style="endArrow=classic;html=1;rounded=0;fontSize=24;" edge="1" parent="1">
          <mxGeometry width="50" height="50" relative="1" as="geometry">
            <mxPoint x="1250" y="1240" as="sourcePoint" />
            <mxPoint x="1460" y="1240" as="targetPoint" />
          </mxGeometry>
        </mxCell>
        <mxCell id="exIGDDAsjf5PF7rCGTXC-18" value="고객 정보" style="text;html=1;strokeColor=none;fillColor=none;align=center;verticalAlign=middle;whiteSpace=wrap;rounded=0;fontSize=24;" vertex="1" parent="1">
          <mxGeometry x="400" y="340" width="170" height="30" as="geometry" />
        </mxCell>
        <mxCell id="exIGDDAsjf5PF7rCGTXC-19" value="고객" style="text;html=1;strokeColor=none;fillColor=none;align=center;verticalAlign=middle;whiteSpace=wrap;rounded=0;fontSize=24;" vertex="1" parent="1">
          <mxGeometry x="1510" y="200" width="170" height="30" as="geometry" />
        </mxCell>
        <mxCell id="exIGDDAsjf5PF7rCGTXC-20" value="업체 정보" style="text;html=1;strokeColor=none;fillColor=none;align=center;verticalAlign=middle;whiteSpace=wrap;rounded=0;fontSize=24;" vertex="1" parent="1">
          <mxGeometry x="1510" y="260" width="180" height="70" as="geometry" />
        </mxCell>
        <mxCell id="exIGDDAsjf5PF7rCGTXC-21" value="고객 정보,&lt;br&gt;가게 방문" style="text;html=1;strokeColor=none;fillColor=none;align=center;verticalAlign=middle;whiteSpace=wrap;rounded=0;fontSize=24;" vertex="1" parent="1">
          <mxGeometry x="700" y="1580" width="170" height="30" as="geometry" />
        </mxCell>
        <mxCell id="exIGDDAsjf5PF7rCGTXC-22" value="상품권" style="text;html=1;strokeColor=none;fillColor=none;align=center;verticalAlign=middle;whiteSpace=wrap;rounded=0;fontSize=24;" vertex="1" parent="1">
          <mxGeometry x="900" y="1040" width="80" height="40" as="geometry" />
        </mxCell>
        <mxCell id="exIGDDAsjf5PF7rCGTXC-23" value="발행하기" style="ellipse;whiteSpace=wrap;html=1;aspect=fixed;fontSize=24;" vertex="1" parent="1">
          <mxGeometry x="480" y="845" width="180" height="180" as="geometry" />
        </mxCell>
        <mxCell id="exIGDDAsjf5PF7rCGTXC-24" value="업체 정보&lt;br&gt;수정하기" style="ellipse;whiteSpace=wrap;html=1;aspect=fixed;fontSize=24;" vertex="1" parent="1">
          <mxGeometry x="1219" y="170" width="180" height="180" as="geometry" />
        </mxCell>
        <mxCell id="exIGDDAsjf5PF7rCGTXC-26" value="이벤트&lt;br&gt;참여하기" style="ellipse;whiteSpace=wrap;html=1;aspect=fixed;fontSize=24;" vertex="1" parent="1">
          <mxGeometry x="730" y="670" width="180" height="180" as="geometry" />
        </mxCell>
        <mxCell id="exIGDDAsjf5PF7rCGTXC-27" value="가게 검색하기" style="ellipse;whiteSpace=wrap;html=1;aspect=fixed;fontSize=24;" vertex="1" parent="1">
          <mxGeometry x="1260" y="685" width="180" height="180" as="geometry" />
        </mxCell>
        <mxCell id="exIGDDAsjf5PF7rCGTXC-33" value="회원&lt;br&gt;관리하기" style="ellipse;whiteSpace=wrap;html=1;aspect=fixed;fontSize=24;" vertex="1" parent="1">
          <mxGeometry x="660" y="255" width="180" height="180" as="geometry" />
        </mxCell>
        <mxCell id="exIGDDAsjf5PF7rCGTXC-39" value="가고자 하는 &lt;br&gt;가게 이름&lt;br&gt;또는 가게 분류" style="text;html=1;strokeColor=none;fillColor=none;align=center;verticalAlign=middle;whiteSpace=wrap;rounded=0;fontSize=24;" vertex="1" parent="1">
          <mxGeometry x="1260" y="1130" width="170" height="110" as="geometry" />
        </mxCell>
        <mxCell id="exIGDDAsjf5PF7rCGTXC-41" value="로그인" style="ellipse;whiteSpace=wrap;html=1;aspect=fixed;fontSize=24;" vertex="1" parent="1">
          <mxGeometry x="2753" y="620" width="180" height="180" as="geometry" />
        </mxCell>
        <mxCell id="exIGDDAsjf5PF7rCGTXC-43" value="" style="endArrow=classic;html=1;rounded=0;fontSize=24;" edge="1" parent="1">
          <mxGeometry width="50" height="50" relative="1" as="geometry">
            <mxPoint x="1000" y="990" as="sourcePoint" />
            <mxPoint x="870" y="870" as="targetPoint" />
            <Array as="points">
              <mxPoint x="870" y="990" />
            </Array>
          </mxGeometry>
        </mxCell>
        <mxCell id="exIGDDAsjf5PF7rCGTXC-44" value="고객 정보" style="text;html=1;strokeColor=none;fillColor=none;align=center;verticalAlign=middle;whiteSpace=wrap;rounded=0;fontSize=24;" vertex="1" parent="1">
          <mxGeometry x="890" y="930" width="110" height="50" as="geometry" />
        </mxCell>
        <mxCell id="exIGDDAsjf5PF7rCGTXC-46" value="" style="endArrow=classic;html=1;rounded=0;fontSize=24;" edge="1" parent="1">
          <mxGeometry width="50" height="50" relative="1" as="geometry">
            <mxPoint x="2623" y="917" as="sourcePoint" />
            <mxPoint x="2753" y="787" as="targetPoint" />
          </mxGeometry>
        </mxCell>
        <mxCell id="exIGDDAsjf5PF7rCGTXC-48" value="" style="endArrow=classic;html=1;rounded=0;fontSize=24;" edge="1" parent="1">
          <mxGeometry width="50" height="50" relative="1" as="geometry">
            <mxPoint x="560" y="570" as="sourcePoint" />
            <mxPoint x="670" y="420" as="targetPoint" />
          </mxGeometry>
        </mxCell>
        <mxCell id="exIGDDAsjf5PF7rCGTXC-49" value="로그인 정보" style="text;html=1;strokeColor=none;fillColor=none;align=center;verticalAlign=middle;whiteSpace=wrap;rounded=0;fontSize=24;" vertex="1" parent="1">
          <mxGeometry x="2560" y="790" width="142" height="50" as="geometry" />
        </mxCell>
        <mxCell id="exIGDDAsjf5PF7rCGTXC-52" value="" style="endArrow=classic;html=1;rounded=0;fontSize=24;" edge="1" parent="1">
          <mxGeometry width="50" height="50" relative="1" as="geometry">
            <mxPoint x="3313" y="340" as="sourcePoint" />
            <mxPoint x="2933" y="640" as="targetPoint" />
          </mxGeometry>
        </mxCell>
        <mxCell id="exIGDDAsjf5PF7rCGTXC-55" value="로그인 정보" style="text;html=1;strokeColor=none;fillColor=none;align=center;verticalAlign=middle;whiteSpace=wrap;rounded=0;fontSize=24;" vertex="1" parent="1">
          <mxGeometry x="3073" y="535" width="142" height="50" as="geometry" />
        </mxCell>
        <mxCell id="exIGDDAsjf5PF7rCGTXC-56" value="" style="endArrow=classic;html=1;rounded=0;fontSize=24;" edge="1" parent="1">
          <mxGeometry width="50" height="50" relative="1" as="geometry">
            <mxPoint x="220" y="1750" as="sourcePoint" />
            <mxPoint x="380" y="1440" as="targetPoint" />
          </mxGeometry>
        </mxCell>
        <mxCell id="exIGDDAsjf5PF7rCGTXC-57" value="업주&amp;amp;고객&lt;br&gt;회원가입" style="text;html=1;strokeColor=none;fillColor=none;align=center;verticalAlign=middle;whiteSpace=wrap;rounded=0;fontSize=24;" vertex="1" parent="1">
          <mxGeometry x="480" y="450" width="142" height="50" as="geometry" />
        </mxCell>
        <mxCell id="exIGDDAsjf5PF7rCGTXC-59" value="업체 정보 자료철" style="shape=partialRectangle;whiteSpace=wrap;html=1;left=0;right=0;fillColor=none;fontSize=24;" vertex="1" parent="1">
          <mxGeometry x="60" y="240" width="200" height="60" as="geometry" />
        </mxCell>
        <mxCell id="exIGDDAsjf5PF7rCGTXC-60" value="" style="endArrow=classic;html=1;rounded=0;fontSize=24;" edge="1" parent="1">
          <mxGeometry width="50" height="50" relative="1" as="geometry">
            <mxPoint x="1200" y="200" as="sourcePoint" />
            <mxPoint x="320" y="240" as="targetPoint" />
          </mxGeometry>
        </mxCell>
        <mxCell id="exIGDDAsjf5PF7rCGTXC-62" value="실시간으로 수정되는 업체 정보" style="text;html=1;strokeColor=none;fillColor=none;align=center;verticalAlign=middle;whiteSpace=wrap;rounded=0;fontSize=24;" vertex="1" parent="1">
          <mxGeometry x="630" y="170" width="360" height="30" as="geometry" />
        </mxCell>
        <mxCell id="exIGDDAsjf5PF7rCGTXC-63" style="edgeStyle=orthogonalEdgeStyle;rounded=0;orthogonalLoop=1;jettySize=auto;html=1;exitX=0.5;exitY=1;exitDx=0;exitDy=0;fontSize=24;" edge="1" parent="1" source="exIGDDAsjf5PF7rCGTXC-18" target="exIGDDAsjf5PF7rCGTXC-18">
          <mxGeometry relative="1" as="geometry" />
        </mxCell>
        <mxCell id="exIGDDAsjf5PF7rCGTXC-65" value="고객 정보 자료철" style="shape=partialRectangle;whiteSpace=wrap;html=1;left=0;right=0;fillColor=none;fontSize=24;" vertex="1" parent="1">
          <mxGeometry x="60" y="315" width="200" height="60" as="geometry" />
        </mxCell>
        <mxCell id="exIGDDAsjf5PF7rCGTXC-66" value="" style="endArrow=classic;html=1;rounded=0;fontSize=24;" edge="1" parent="1">
          <mxGeometry width="50" height="50" relative="1" as="geometry">
            <mxPoint x="650" y="373" as="sourcePoint" />
            <mxPoint x="310" y="373" as="targetPoint" />
          </mxGeometry>
        </mxCell>
        <mxCell id="exIGDDAsjf5PF7rCGTXC-69" value="업체&amp;amp;업주 정보" style="text;html=1;strokeColor=none;fillColor=none;align=center;verticalAlign=middle;whiteSpace=wrap;rounded=0;fontSize=24;" vertex="1" parent="1">
          <mxGeometry x="400" y="285" width="170" height="30" as="geometry" />
        </mxCell>
      </root>
    </mxGraphModel>
  </diagram>
</mxfile>
